<svg width="25" height="25" viewBox="0 0 25 25" fill="none" xmlns="http://www.w3.org/2000/svg">
<path d="M6.7715 10.6717V8.67922C6.7715 5.38163 7.76775 2.70172 12.749 2.70172C17.7303 2.70172 18.7265 5.38163 18.7265 8.67922V10.6717" stroke="#797979" stroke-width="1.49438" stroke-linecap="round" stroke-linejoin="round"/>
<path d="M12.7486 19.1398C14.1241 19.1398 15.2392 18.0247 15.2392 16.6492C15.2392 15.2736 14.1241 14.1585 12.7486 14.1585C11.373 14.1585 10.2579 15.2736 10.2579 16.6492C10.2579 18.0247 11.373 19.1398 12.7486 19.1398Z" stroke="#797979" stroke-width="1.49438" stroke-linecap="round" stroke-linejoin="round"/>
<path d="M17.7297 22.6265H7.76722C3.78222 22.6265 2.78596 21.6302 2.78596 17.6452V15.6527C2.78596 11.6677 3.78222 10.6715 7.76722 10.6715H17.7297C21.7147 10.6715 22.711 11.6677 22.711 15.6527V17.6452C22.711 21.6302 21.7147 22.6265 17.7297 22.6265Z" stroke="#797979" stroke-width="1.49438" stroke-linecap="round" stroke-linejoin="round"/>
</svg>
